<svg xmlns="http://www.w3.org/2000/svg" viewBox="0 0 610.43 888.24" xmlns:v="https://vecta.io/nano"><path d="M610,751a75.16,75.16,0,0,0-2.5-12.69c-19.82-69.65-34.25-134.39-47-191.52C524.7,386,499.87,274.6,399,254.82A147.42,147.42,0,0,0,427.7,105.88C407.25,44.53,355.74,0,305.22,0s-102,44.53-122.49,105.88A147.49,147.49,0,0,0,173.81,158a147.43,147.43,0,0,0,37.66,96.87C110.56,274.6,85.73,386,49.9,546.74c-12.73,57.13-27.16,121.87-47,191.52a74.31,74.31,0,0,0-.76,38.4,74.29,74.29,0,0,0,18.56,33.63c43.61,44.61,123.65,78,166.06,78a14.76,14.76,0,0,0,10.47-4.33,14.88,14.88,0,0,0,4.34-10.47c0-45.87,1.38-89.26,3.88-130,22.83-18.08,54.17-18.23,90.29-18l9.46,0,9.06,0c36.21-.16,67.76,0,90.68,18.06,2.5,40.76,3.88,84.14,3.88,130a14.78,14.78,0,0,0,7.41,12.82,14.72,14.72,0,0,0,7.4,2c42.41,0,122.45-33.34,166.05-78A74.19,74.19,0,0,0,610,751ZM388.16,703.11q-7.2-2-14.53-3.5t-14.73-2.5q-7.39-1-14.86-1.47t-14.94-.45q-7.47,0-14.93.58l-8.95,0-9.34,0q-7.42-.54-14.87-.56t-14.86.46q-7.42.48-14.81,1.47t-14.66,2.48q-7.29,1.5-14.46,3.48T208,707.55c16.34-203.61,60.8-334.13,97.19-364.21C341.6,373.43,386.07,504,402.41,707.6Q395.36,705.11,388.16,703.11Zm192.58,58.61a44.32,44.32,0,0,1-3.64,15,44.54,44.54,0,0,1-8.57,12.86q-9.06,8.42-18.85,16t-20.21,14.25q-10.43,6.67-21.42,12.37t-22.44,10.4q-11.44,4.68-23.28,8.33t-23.94,6.2c-2.11-272.31-56.94-509.88-126.55-544.7a16.22,16.22,0,0,0-2.12-.86,15.36,15.36,0,0,0-2.23-.52,14.47,14.47,0,0,0-4.55,0,15.36,15.36,0,0,0-2.23.52,16.22,16.22,0,0,0-2.12.86C229,347.26,174.15,584.83,172,857.15q-12.1-2.56-23.94-6.21t-23.28-8.33q-11.44-4.7-22.44-10.4T81,819.84q-10.42-6.66-20.21-14.25t-18.86-16a44.82,44.82,0,0,1-4.84-6.06,44.31,44.31,0,0,1-7.36-21.82,44.61,44.61,0,0,1,.18-7.75,43.76,43.76,0,0,1,1.54-7.6C51.45,675.9,66,610.69,78.8,553.17c40.92-183.62,65.13-271.9,167.2-271.9a14.8,14.8,0,0,0,8.88-26.64,119.53,119.53,0,0,1-44.07-139.38c16.28-48.82,56.86-85.64,94.41-85.64s78.12,36.82,94.4,85.64a119.56,119.56,0,0,1-44.07,139.38,14.82,14.82,0,0,0-5.86,10.44,14.79,14.79,0,0,0,14.74,16.2c102.08,0,126.28,88.28,167.2,271.9C544.45,610.69,559,675.9,579,746.36a44.27,44.27,0,0,1,1.71,15.36Z" fill="#121d33"/><path d="M402.41,707.6q-7.05-2.49-14.25-4.49t-14.53-3.5q-7.32-1.5-14.73-2.5T344,695.64q-7.47-.48-14.94-.45t-14.93.58l-8.95,0-9.34,0q-7.42-.54-14.87-.56t-14.86.46q-7.42.48-14.81,1.47t-14.66,2.48q-7.29,1.5-14.46,3.48T208,707.55c16.34-203.61,60.8-334.13,97.19-364.21C341.6,373.43,386.07,504,402.41,707.6Z" fill="#0e214a"/><path d="M580.74,761.72a44.32,44.32,0,0,1-3.64,15,44.54,44.54,0,0,1-8.57,12.86q-9.06,8.42-18.85,16t-20.21,14.25q-10.43,6.67-21.42,12.37t-22.44,10.4q-11.44,4.68-23.28,8.33t-23.94,6.2c-2.11-272.31-56.94-509.88-126.55-544.7a16.22,16.22,0,0,0-2.12-.86,15.36,15.36,0,0,0-2.23-.52,14.47,14.47,0,0,0-4.55,0,15.36,15.36,0,0,0-2.23.52,16.22,16.22,0,0,0-2.12.86C229,347.26,174.15,584.83,172,857.15q-12.1-2.56-23.94-6.21t-23.28-8.33q-11.44-4.7-22.44-10.4T81,819.84q-10.42-6.66-20.21-14.25t-18.86-16a44.82,44.82,0,0,1-4.84-6.06,44.31,44.31,0,0,1-7.36-21.82,44.61,44.61,0,0,1,.18-7.75,43.76,43.76,0,0,1,1.54-7.6C51.45,675.9,66,610.69,78.8,553.17c40.92-183.62,65.13-271.9,167.2-271.9a14.8,14.8,0,0,0,8.88-26.64,119.53,119.53,0,0,1-44.07-139.38c16.28-48.82,56.86-85.64,94.41-85.64s78.12,36.82,94.4,85.64a119.56,119.56,0,0,1-44.07,139.38,14.82,14.82,0,0,0-5.86,10.44,14.79,14.79,0,0,0,14.74,16.2c102.08,0,126.28,88.28,167.2,271.9C544.45,610.69,559,675.9,579,746.36a44.27,44.27,0,0,1,1.71,15.36Z" fill="#1b3f8c"/><ellipse cx="305.57" cy="153.23" rx="85.85" ry="103.36" fill="#0e214a"/><path d="M286.5,71a83.32,83.32,0,0,0,7.41,162.57l10.91,40.7,22.76-6.1-5.89-22,22-5.89,5.9,22,22.78-6.11-10.92-40.7A83.31,83.31,0,0,0,286.5,71Zm33.72,125.78,17,17L314,220Zm20-65.45A27.22,27.22,0,1,1,321,164.65,27.22,27.22,0,0,1,340.27,131.3Zm-35,70.26-23.14-15.07L267,209.63,256.89,203,272,179.88,248.82,164.8l6.61-10.14,23.14,15.07,15.08-23.14,10.14,6.61-15.07,23.14,23.14,15.08Z" fill="#00e59d" fill-rule="evenodd"/></svg>