<svg xmlns="http://www.w3.org/2000/svg" viewBox="0 0 400 400" xmlns:v="https://vecta.io/nano"><path d="M0 0h400v400H0z" fill="#0e214a"/><path d="M159.93,14a154.67,154.67,0,0,0,13.75,301.81l20.26,75.56L236.2,380l-10.93-40.79,40.79-10.94L277,369.08l42.3-11.34L299,282.17A154.67,154.67,0,0,0,159.93,14Zm62.61,233.51,31.55,31.58L211,290.61ZM259.75,126A50.53,50.53,0,1,1,224,187.88,50.53,50.53,0,0,1,259.75,126Zm-65,130.44-43-28-28,43L105,259.12l28-43-43-28,12.27-18.83,43,28,28-43L192,166.62l-28,43,43,28Z" fill="#00e59d" fill-rule="evenodd"/></svg>