<svg xmlns="http://www.w3.org/2000/svg" viewBox="0 0 792.4 196.8" xmlns:v="https://vecta.io/nano"><path d="M295.6 38.7c0-7.5 5.9-13.5 13.5-13.5s13.5 5.9 13.5 13.5v36h49.7v-36c0-7.5 5.9-13.5 13.5-13.5s13.5 5.9 13.5 13.5v97.6c0 7.5-5.9 13.5-13.5 13.5s-13.5-5.9-13.5-13.5V99.5h-49.7v36.7c0 7.5-5.9 13.5-13.5 13.5s-13.5-5.9-13.5-13.5V38.7zm246.9 111.9h-1.4c-7.2 0-12.1-4.5-15-11.5l-28.7-66.3c-.7-1.7-1.4-4-1.4-6.5 0-6.3 5.8-12.4 12.9-12.4s11 4 12.9 9.4l20.1 54.4L562.5 63c1.7-4.5 5.4-9.1 12.4-9.1s12.8 5.4 12.8 12.6c0 2.3-.9 5.1-1.4 6.3L557.6 139c-3 6.9-7.9 11.6-15.1 11.6zm96.9.2c-28.2 0-49-19.8-49-48.4v-.4c0-26.8 19.1-48.8 46.3-48.8 31.3 0 45.1 25.7 45.1 45.1 0 7.7-5.4 12.8-12.4 12.8h-52.6c2.6 12.1 11 18.4 22.9 18.4 7.3 0 13.5-2.3 18.9-6.3 1.9-1.4 3.7-2.1 6.5-2.1 5.9 0 10.3 4.5 10.3 10.5 0 3.5-1.6 6.1-3.5 7.9-8.2 6.9-18.8 11.3-32.5 11.3zm17.2-56.4c-1.6-11.9-8.6-19.9-19.8-19.9-11 0-18.2 7.9-20.3 19.9h40.1zm39.3-27.2c0-7.3 5.9-13.3 13.3-13.3s13.3 5.9 13.3 13.3v1c6.1-7.9 14-15 27.5-15 20.1 0 31.8 13.3 31.8 34.8v48.4c0 7.3-5.9 13.3-13.3 13.3-7.3 0-13.3-5.9-13.3-13.3v-40c0-12.6-5.9-19.1-16.1-19.1-10.1 0-16.6 6.5-16.6 19.1v40.1c0 7.3-5.9 13.3-13.3 13.3s-13.3-5.9-13.3-13.3V67.2z" enable-background="new" fill="red"/><g fill="#00e59d"><path d="M52.5 146.6H26.2L0 41.6h26.2l13.1 52.5 13.1-52.5h26.2l-26.1 105zm23.6-43.8c0-4.8.9-9.3 2.8-13.6s4.4-8 7.5-11.1 6.8-5.7 11.1-7.5c4.3-1.9 8.8-2.8 13.6-2.8s9.3.9 13.6 2.8 8 4.4 11.1 7.5 5.7 6.9 7.5 11.1c1.9 4.3 2.8 8.8 2.8 13.6v8.7c0 4.8-.9 9.3-2.8 13.6s-4.4 8-7.5 11.1-6.9 5.7-11.1 7.5c-4.3 1.9-8.8 2.8-13.6 2.8s-9.3-.9-13.6-2.8-8-4.4-11.1-7.5-5.7-6.8-7.5-11.1c-1.9-4.3-2.8-8.8-2.8-13.6v-8.7zm43.7 0c0-2.4-.8-4.5-2.5-6.2s-3.8-2.5-6.2-2.5-4.5.8-6.2 2.5-2.5 3.8-2.5 6.2v8.7c0 2.4.8 4.5 2.5 6.2s3.8 2.5 6.2 2.5 4.5-.8 6.2-2.5 2.5-3.8 2.5-6.2v-8.7zm109.1 8.8c0 4.8-.9 9.3-2.8 13.6s-4.4 8-7.5 11.1-6.9 5.7-11.1 7.5c-4.3 1.9-8.8 2.8-13.6 2.8s-9.3-.9-13.6-2.8-8-4.4-11.1-7.5-5.7-6.8-7.5-11.1c-1.9-4.3-2.8-8.8-2.8-13.6V85.3h-8.7V67.9h8.7V41.6h26.2v26.2h17.5v17.5h-17.5v26.2c0 2.4.8 4.5 2.5 6.2s3.8 2.5 6.2 2.5 4.5-.8 6.2-2.5 2.5-3.8 2.5-6.2h26.4zm6.5-8.8c0-4.8.9-9.3 2.8-13.6s4.4-8 7.5-11.1 6.8-5.7 11.1-7.5c4.3-1.9 8.8-2.8 13.6-2.8s9.3.9 13.6 2.8 8 4.4 11.1 7.5 5.7 6.9 7.5 11.1c1.9 4.3 2.8 8.8 2.8 13.6v8.7h-43.7c0 2.4.8 4.5 2.5 6.2s3.8 2.5 6.2 2.5h26.2v26.2h-26.2c-4.8 0-9.3-.9-13.6-2.8s-8-4.4-11.1-7.5-5.7-6.8-7.5-11.1c-1.9-4.3-2.8-8.8-2.8-13.6v-8.6zm43.7 0c0-2.4-.8-4.5-2.5-6.2s-3.8-2.5-6.2-2.5-4.5.8-6.2 2.5-2.5 3.8-2.5 6.2h17.4z" enable-background="new"/><path d="M441.3 59.9c-26.9 7.2-42.9 34.9-35.7 61.9 5.1 19 20.8 33.3 40.2 36.7l6.6 24.7 13.8-3.7-3.6-13.3 13.3-3.6 3.6 13.3 13.8-3.7-6.6-24.7c21.4-17.9 24.3-49.7 6.4-71.1-12.6-15.1-32.8-21.6-51.8-16.5h0zm20.4 76.3l10.3 10.3-14 3.8 3.7-14.1zm12.2-39.7c8.8-2.4 17.9 2.9 20.2 11.7s-2.9 17.9-11.7 20.2c-8.8 2.4-17.8-2.9-20.2-11.7s2.9-17.8 11.7-20.2h0zm-21.2 42.6l-14-9.1-9.1 14-6.1-4 9.1-14-14-9.1 4-6.2 14 9.1 9.1-14 6.1 4-9.1 14 14 9.1-4 6.2z" fill-rule="evenodd"/></g></svg>